<svg width="291" height="305" viewBox="0 0 291 305" fill="none" xmlns="http://www.w3.org/2000/svg">
<g clip-path="url(#clip0_20_2)">
<path d="M120.68 164.195C128.762 153.816 131.758 140.128 129.984 125.761C127.914 108.984 119.395 91.3198 104.918 76.7495C90.4414 62.1792 72.836 53.5386 56.0742 51.3589C23.0352 47.0581 0.22267 72.0698 28.5352 91.7769C37.5117 98.023 50.2305 103.355 63.1484 108.765C74.4727 113.511 85.9492 118.32 95.6797 124.054C112.457 133.937 123.859 146.171 120.68 164.195ZM128.488 296.019C139.223 303.625 153.035 305.996 167.305 303.574C183.973 300.746 201.23 291.437 215.133 276.316C229.035 261.195 236.867 243.218 238.285 226.375C241.09 193.171 215.066 171.519 196.664 200.691C190.828 209.941 186.082 222.886 181.258 236.039C177.031 247.566 172.746 259.25 167.461 269.226C158.344 286.437 146.641 298.382 128.488 296.019ZM213.891 177.601C204.152 172.71 192.582 171.402 180.691 173.417C164.027 176.246 146.766 185.554 132.863 200.675C118.961 215.796 111.133 233.777 109.711 250.621C106.191 292.371 140.672 299.386 159.031 264.73C164 255.351 168.176 243.964 172.293 232.73C177.285 219.121 182.195 205.726 188.605 195.57C195.281 184.988 203.273 177.96 213.891 177.601ZM280.449 17.8198C288.531 28.1987 291.523 41.8902 289.75 56.2612C287.68 73.0308 279.164 90.6948 264.688 105.269C250.211 119.843 232.605 128.476 215.844 130.66C182.801 134.96 159.992 109.945 188.301 90.2417C197.281 83.9917 209.996 78.6597 222.914 73.2495C234.242 68.5112 245.719 63.6987 255.445 57.9683C272.227 48.0777 283.629 35.8511 280.449 17.8198ZM166.016 108.496C160.688 98.9878 158.859 87.4878 160.336 75.5191C162.406 58.7378 170.922 41.0777 185.398 26.5112C199.875 11.9292 217.48 3.30031 234.242 1.12062C275.793 -4.28953 284.359 29.8394 250.574 49.7495C241.426 55.1402 230.242 59.8198 219.207 64.4487C205.84 70.0503 192.68 75.5581 182.82 82.4214C172.555 89.5698 165.891 97.8706 166.016 108.496ZM6.24611 73.5191C0.921887 83.0269 -0.910143 94.5269 0.566419 106.496C2.63673 123.273 11.1563 140.937 25.6328 155.511C40.1094 170.082 57.7149 178.718 74.4766 180.902C116.027 186.308 124.594 152.175 90.8086 132.269C81.6602 126.882 70.4766 122.195 59.4375 117.57C46.0703 111.972 32.9102 106.457 23.0547 99.5972C12.7852 92.4487 6.12501 84.148 6.24611 73.5191Z" fill="#3B1905"/>
</g>
<defs>
<clipPath id="clip0_20_2">
<rect width="291" height="305" fill="white"/>
</clipPath>
</defs>
</svg>
