<svg width="279" height="327" viewBox="0 0 279 327" fill="none" xmlns="http://www.w3.org/2000/svg">
<path fill-rule="evenodd" clip-rule="evenodd" d="M153.594 0.867188C156.906 0.867188 160.059 2.17187 162.398 4.51172C164.738 6.85156 166.047 10.0078 166.047 13.3164C166.047 16.6289 164.738 19.7812 162.398 22.1211C160.062 24.457 156.918 25.7695 153.613 25.7695H153.574C150.27 25.7695 147.125 24.457 144.789 22.1211C142.449 19.7812 141.145 16.6289 141.145 13.3164C141.145 10.0078 142.449 6.85156 144.789 4.51172C147.129 2.17187 150.281 0.867188 153.594 0.867188ZM252.551 180.758V287.234H26.5469V180.758H252.551ZM83.1172 210.508H195.98V257.48H83.1172V210.508ZM278.25 171.293H0.847656V152.668H278.25V171.293ZM15.0469 20.6719V5.96484H132.082C131.281 8.30859 130.863 10.7891 130.863 13.3164C130.863 15.8438 131.281 18.3281 132.082 20.6719H15.0469ZM0.847656 326.078V296.699H278.25V326.078H0.847656ZM18.9492 86.3281H260.148L259.102 90.2305C256.781 98.8438 253.52 107.184 249.398 115.098C244.281 124.941 237.852 134.074 230.305 142.211L229.387 143.203H49.7148L48.7969 142.211C41.25 134.074 34.8203 124.941 29.6953 115.098C25.5781 107.188 22.3164 98.8438 20 90.2305L18.9492 86.3281ZM153.594 35.2305H162.906V76.8672H144.281V35.2305H153.594Z" fill="#3B1905"/>
</svg>
