<svg width="289" height="400" viewBox="0 0 289 400" fill="none" xmlns="http://www.w3.org/2000/svg">
<path d="M288.16 240.711C288.16 260.41 280.172 278.25 267.262 291.16C259.441 298.98 249.809 304.988 239.055 308.52V294.262C246.117 291.32 252.48 287.031 257.801 281.699C268.289 271.211 274.781 256.719 274.781 240.711C274.781 224.699 268.289 210.211 257.801 199.719C252.48 194.391 246.117 190.102 239.055 187.16V172.898C249.809 176.43 259.441 182.441 267.262 190.262C280.172 203.172 288.16 221.012 288.16 240.711ZM62.2344 162.02C10.6602 114.641 87.3516 94.1211 60.3047 61.25C105.203 97.4883 46.4492 118.09 62.2344 162.02ZM169.695 160.73C121.746 116.68 193.051 97.6094 167.902 67.0391C209.645 100.738 155.02 119.891 169.695 160.73ZM108.164 160.73C190.391 85.1914 68.1211 52.4883 111.246 0.078125C39.6602 57.8594 133.328 90.6914 108.164 160.73ZM195.449 172.898H0.941406V230.68H222.465V172.898H195.449ZM0.941406 282.539V372.289C0.941406 379.711 3.98438 386.469 8.88281 391.371C13.7813 396.27 20.5352 399.309 27.957 399.309H195.449C202.871 399.309 209.621 396.27 214.523 391.371C219.422 386.469 222.465 379.711 222.465 372.289V282.539H0.941406Z" fill="#3B1905"/>
</svg>
